<?xml version="1.0" encoding="utf-8"?>
<!-- Generator: Adobe Illustrator 15.1.0, SVG Export Plug-In  -->
<!DOCTYPE svg PUBLIC "-//W3C//DTD SVG 1.1//EN" "http://www.w3.org/Graphics/SVG/1.1/DTD/svg11.dtd" [
	<!ENTITY ns_flows "http://ns.adobe.com/Flows/1.0/">
]>
<svg version="1.1"
	 xmlns="http://www.w3.org/2000/svg" xmlns:xlink="http://www.w3.org/1999/xlink" xmlns:a="http://ns.adobe.com/AdobeSVGViewerExtensions/3.0/"
	 x="0px" y="0px" width="276px" height="277px" viewBox="0 0 276 277" enable-background="new 0 0 276 277" xml:space="preserve">
<defs>
</defs>
<path d="M240.908,78.391c9.544,16.199,14.46,33.844,15.617,51.489h-72.013c-0.867-5.496-2.603-10.703-5.784-15.91
	c-2.892-4.917-6.362-8.967-10.411-12.438l36.15-62.481C218.928,49.175,231.364,62.192,240.908,78.391z M191.165,243.272
	c-33.837,17.067-72.59,15.91-104.692,0.29l35.861-62.481c10.412,3.76,21.979,3.76,32.681-0.29L191.165,243.272z M20.534,129.88
	c2.313-35.869,20.823-70.002,52.635-91.119l35.861,62.192c-8.965,7.231-14.75,17.646-16.774,28.637H20.534V129.88z M113.368,137.401
	c0-13.885,11.279-24.876,24.872-24.876c13.882,0,24.872,11.281,24.872,24.876c0,13.885-11.279,24.877-24.872,24.877
	C124.647,162.567,113.368,151.286,113.368,137.401z M0,138.269c0,76.366,61.89,138.269,138.24,138.269
	c76.351,0,138.24-61.902,138.24-138.269S214.59,0,138.24,0C62.179,0,0,61.903,0,138.269z"/>
</svg>
